<svg width="24" height="24" viewBox="0 0 24 24" fill="none" xmlns="http://www.w3.org/2000/svg">
<path d="M4.88889 20C4.63704 20 4.42607 19.9147 4.256 19.744C4.08593 19.5733 4.00059 19.3624 4 19.1111V16.9556C4 16.7185 4.04444 16.4924 4.13333 16.2773C4.22222 16.0622 4.34815 15.8735 4.51111 15.7111L15.7333 4.51111C15.9111 4.34815 16.1076 4.22222 16.3227 4.13333C16.5378 4.04444 16.7636 4 17 4C17.2364 4 17.4661 4.04444 17.6889 4.13333C17.9117 4.22222 18.1043 4.35556 18.2667 4.53333L19.4889 5.77778C19.6667 5.94074 19.7961 6.13333 19.8773 6.35556C19.9585 6.57778 19.9994 6.8 20 7.02222C20 7.25926 19.9591 7.48533 19.8773 7.70044C19.7956 7.91556 19.6661 8.1117 19.4889 8.28889L8.28889 19.4889C8.12593 19.6519 7.93689 19.7778 7.72178 19.8667C7.50667 19.9556 7.28089 20 7.04444 20H4.88889ZM16.9778 8.26667L18.2222 7.02222L16.9778 5.77778L15.7333 7.02222L16.9778 8.26667Z" fill="#2D2D2D" style="fill:#2D2D2D;fill:color(display-p3 0.1772 0.1772 0.1772);fill-opacity:1;"/>
</svg>
