<svg width="65" height="64" viewBox="0 0 65 64" fill="none" xmlns="http://www.w3.org/2000/svg">
<rect x="1" y="0.5" width="63" height="63" rx="31.5" fill="white" style="fill:white;fill-opacity:1;"/>
<rect x="1" y="0.5" width="63" height="63" rx="31.5" stroke="#D7D7D7" style="stroke:#D7D7D7;stroke:color(display-p3 0.8450 0.8450 0.8450);stroke-opacity:1;"/>
<path d="M45.5738 29.3887H44.4998V29.3334H32.4998V34.6667H40.0352C38.9358 37.7714 35.9818 40.0001 32.4998 40.0001C28.0818 40.0001 24.4998 36.4181 24.4998 32.0001C24.4998 27.5821 28.0818 24.0001 32.4998 24.0001C34.5392 24.0001 36.3945 24.7694 37.8072 26.0261L41.5785 22.2547C39.1972 20.0354 36.0118 18.6667 32.4998 18.6667C25.1365 18.6667 19.1665 24.6367 19.1665 32.0001C19.1665 39.3634 25.1365 45.3334 32.4998 45.3334C39.8632 45.3334 45.8332 39.3634 45.8332 32.0001C45.8332 31.1061 45.7412 30.2334 45.5738 29.3887Z" fill="#FFC107" style="fill:#FFC107;fill:color(display-p3 1.0000 0.7569 0.0275);fill-opacity:1;"/>
<path d="M20.7041 25.7941L25.0848 29.0067C26.2701 26.0721 29.1408 24.0001 32.5001 24.0001C34.5394 24.0001 36.3948 24.7694 37.8074 26.0261L41.5788 22.2547C39.1974 20.0354 36.0121 18.6667 32.5001 18.6667C27.3788 18.6667 22.9374 21.5581 20.7041 25.7941Z" fill="#FF3D00" style="fill:#FF3D00;fill:color(display-p3 1.0000 0.2392 0.0000);fill-opacity:1;"/>
<path d="M32.4999 45.3333C35.9439 45.3333 39.0732 44.0153 41.4392 41.872L37.3126 38.38C35.9289 39.4322 34.2382 40.0013 32.4999 40C29.0319 40 26.0872 37.7886 24.9779 34.7026L20.6299 38.0526C22.8365 42.3706 27.3179 45.3333 32.4999 45.3333Z" fill="#4CAF50" style="fill:#4CAF50;fill:color(display-p3 0.2980 0.6863 0.3137);fill-opacity:1;"/>
<path d="M45.574 29.3886H44.5V29.3333H32.5V34.6666H40.0353C39.5095 36.1442 38.5622 37.4354 37.3107 38.3806L37.3127 38.3793L41.4393 41.8713C41.1473 42.1366 45.8333 38.6666 45.8333 31.9999C45.8333 31.1059 45.7413 30.2333 45.574 29.3886Z" fill="#1976D2" style="fill:#1976D2;fill:color(display-p3 0.0980 0.4627 0.8235);fill-opacity:1;"/>
</svg>
