<svg width="64" height="64" viewBox="0 0 64 64" fill="none" xmlns="http://www.w3.org/2000/svg">
<rect width="64" height="64" rx="32" fill="#FFE400" style="fill:#FFE400;fill:color(display-p3 1.0000 0.8941 0.0000);fill-opacity:1;"/>
<path d="M32.0001 20C39.7335 20 46.0015 24.8853 46.0015 30.9133C46.0015 36.94 39.7335 41.8253 32.0015 41.8253C31.2316 41.824 30.4626 41.775 29.6988 41.6787L23.8215 45.5227C23.1535 45.876 22.9175 45.8373 23.1921 44.972L24.3815 40.068C20.5415 38.1213 18.0015 34.748 18.0015 30.9133C18.0015 24.8867 24.2681 20 32.0015 20M39.8788 30.7467L41.8388 28.848C41.9519 28.7305 42.015 28.5738 42.0148 28.4107C42.0146 28.2477 41.9511 28.0911 41.8377 27.9739C41.7244 27.8567 41.5699 27.7881 41.407 27.7825C41.244 27.7769 41.0853 27.8348 40.9641 27.944L38.3935 30.432V28.376C38.3935 28.2091 38.3272 28.049 38.2091 27.931C38.0911 27.813 37.931 27.7467 37.7641 27.7467C37.5972 27.7467 37.4371 27.813 37.3191 27.931C37.2011 28.049 37.1348 28.2091 37.1348 28.376V31.7853C37.1126 31.8828 37.1126 31.9839 37.1348 32.0813V34C37.1348 34.1669 37.2011 34.327 37.3191 34.445C37.4371 34.563 37.5972 34.6293 37.7641 34.6293C37.931 34.6293 38.0911 34.563 38.2091 34.445C38.3272 34.327 38.3935 34.1669 38.3935 34V32.1827L38.9628 31.632L40.8668 34.3427C40.9143 34.4103 40.9747 34.468 41.0446 34.5123C41.1144 34.5567 41.1922 34.5868 41.2737 34.601C41.3552 34.6153 41.4387 34.6133 41.5194 34.5953C41.6001 34.5773 41.6765 34.5435 41.7441 34.496C41.8118 34.4485 41.8695 34.3881 41.9138 34.3182C41.9581 34.2484 41.9883 34.1706 42.0025 34.0891C42.0167 34.0076 42.0148 33.9241 41.9968 33.8434C41.9787 33.7627 41.945 33.6863 41.8975 33.6187L39.8788 30.7467ZM35.9348 33.312H33.9881V28.396C33.9807 28.2343 33.9112 28.0816 33.7941 27.9698C33.677 27.858 33.5214 27.7956 33.3595 27.7956C33.1976 27.7956 33.0419 27.858 32.9248 27.9698C32.8077 28.0816 32.7382 28.2343 32.7308 28.396V33.9413C32.7308 34.288 33.0108 34.5707 33.3588 34.5707H35.9348C36.1017 34.5707 36.2618 34.5044 36.3798 34.3863C36.4978 34.2683 36.5641 34.1082 36.5641 33.9413C36.5641 33.7744 36.4978 33.6144 36.3798 33.4963C36.2618 33.3783 36.1017 33.312 35.9348 33.312ZM28.1255 31.8573L29.0535 29.58L29.9041 31.856L28.1255 31.8573ZM31.4895 32.5067L31.4921 32.4853C31.4917 32.3268 31.4312 32.1744 31.3228 32.0587L29.9281 28.3253C29.8697 28.1474 29.7583 27.9916 29.6089 27.8787C29.4595 27.7657 29.2792 27.7011 29.0921 27.6933C28.9038 27.6932 28.7199 27.7501 28.5645 27.8565C28.4091 27.9629 28.2895 28.1138 28.2215 28.2893L26.0055 33.7227C25.9423 33.8772 25.9432 34.0505 26.0078 34.2044C26.0725 34.3583 26.1956 34.4802 26.3501 34.5433C26.5047 34.6065 26.6779 34.6056 26.8318 34.541C26.9858 34.4763 27.1077 34.3532 27.1708 34.1987L27.6135 33.1147H30.3735L30.7708 34.1813C30.7979 34.2611 30.8407 34.3345 30.8968 34.3974C30.9528 34.4603 31.0208 34.5113 31.0969 34.5474C31.173 34.5835 31.2556 34.6039 31.3397 34.6075C31.4238 34.6111 31.5078 34.5978 31.5867 34.5684C31.6656 34.5389 31.7378 34.4939 31.799 34.4361C31.8602 34.3782 31.9092 34.3087 31.943 34.2316C31.9768 34.1544 31.9948 34.0713 31.9959 33.9871C31.997 33.9029 31.9812 33.8193 31.9495 33.7413L31.4895 32.5067ZM27.0588 28.4027C27.0591 28.32 27.0432 28.2382 27.0117 28.1617C26.9803 28.0853 26.9341 28.0158 26.8757 27.9573C26.8174 27.8989 26.748 27.8525 26.6716 27.8209C26.5953 27.7893 26.5134 27.7732 26.4308 27.7733H22.1041C21.9372 27.7733 21.7771 27.8396 21.6591 27.9577C21.5411 28.0757 21.4748 28.2358 21.4748 28.4027C21.4748 28.5696 21.5411 28.7297 21.6591 28.8477C21.7771 28.9657 21.9372 29.032 22.1041 29.032H23.6508V34.0133C23.6508 34.1802 23.7171 34.3403 23.8351 34.4583C23.9531 34.5764 24.1132 34.6427 24.2801 34.6427C24.447 34.6427 24.6071 34.5764 24.7251 34.4583C24.8432 34.3403 24.9095 34.1802 24.9095 34.0133V29.032H26.4295C26.5122 29.0324 26.5942 29.0163 26.6707 28.9848C26.7472 28.9533 26.8167 28.907 26.8753 28.8485C26.9338 28.79 26.9801 28.7204 27.0116 28.6439C27.0431 28.5674 27.0592 28.4854 27.0588 28.4027Z" fill="#2D2D2D" style="fill:#2D2D2D;fill:color(display-p3 0.1772 0.1772 0.1772);fill-opacity:1;"/>
</svg>
