<svg width="24" height="24" viewBox="0 0 24 24" fill="none" xmlns="http://www.w3.org/2000/svg">
<path d="M14 17H20M17 20V14M5.6 4H8.4C8.61011 4 8.81817 4.04139 9.01229 4.12179C9.20641 4.2022 9.3828 4.32006 9.53137 4.46863C9.67994 4.6172 9.7978 4.79359 9.87821 4.98771C9.95861 5.18183 10 5.38988 10 5.6V8.4C10 8.61011 9.95861 8.81817 9.87821 9.01229C9.7978 9.20641 9.67994 9.3828 9.53137 9.53137C9.3828 9.67994 9.20641 9.7978 9.01229 9.87821C8.81817 9.95861 8.61011 10 8.4 10H5.6C5.17565 10 4.76869 9.83143 4.46863 9.53137C4.16857 9.23131 4 8.82435 4 8.4V5.6C4 5.17565 4.16857 4.76869 4.46863 4.46863C4.76869 4.16857 5.17565 4 5.6 4ZM5.6 14H8.4C8.82435 14 9.23131 14.1686 9.53137 14.4686C9.83143 14.7687 10 15.1757 10 15.6V18.4C10 18.8243 9.83143 19.2313 9.53137 19.5314C9.23131 19.8314 8.82435 20 8.4 20H5.6C5.17565 20 4.76869 19.8314 4.46863 19.5314C4.16857 19.2313 4 18.8243 4 18.4V15.6C4 15.1757 4.16857 14.7687 4.46863 14.4686C4.76869 14.1686 5.17565 14 5.6 14ZM15.6 4H18.4C18.8243 4 19.2313 4.16857 19.5314 4.46863C19.8314 4.76869 20 5.17565 20 5.6V8.4C20 8.82435 19.8314 9.23131 19.5314 9.53137C19.2313 9.83143 18.8243 10 18.4 10H15.6C15.1757 10 14.7687 9.83143 14.4686 9.53137C14.1686 9.23131 14 8.82435 14 8.4V5.6C14 5.17565 14.1686 4.76869 14.4686 4.46863C14.7687 4.16857 15.1757 4 15.6 4Z" stroke="#68687C" style="stroke:#68687C;stroke:color(display-p3 0.4089 0.4089 0.4875);stroke-opacity:1;" stroke-width="1.5" stroke-miterlimit="10" stroke-linecap="round" stroke-linejoin="round"/>
</svg>
