<svg width="20" height="20" viewBox="0 0 20 20" fill="none" xmlns="http://www.w3.org/2000/svg">
<g id="Group">
<path id="Vector" d="M13.25 0.75H6.75C3.43629 0.75 0.75 3.43629 0.75 6.75V13.25C0.75 16.5637 3.43629 19.25 6.75 19.25H13.25C16.5637 19.25 19.25 16.5637 19.25 13.25V6.75C19.25 3.43629 16.5637 0.75 13.25 0.75Z" stroke="#68687C" style="stroke:#68687C;stroke:color(display-p3 0.4089 0.4089 0.4875);stroke-opacity:1;" stroke-width="1.5"/>
<path id="Vector_2" d="M5 13L7.45 9.74C7.60003 9.53925 7.81998 9.40215 8.06629 9.35585C8.3126 9.30955 8.56731 9.35743 8.78 9.49L11.17 11C11.3909 11.1406 11.6581 11.1891 11.9142 11.1348C12.1704 11.0806 12.3951 10.9281 12.54 10.71L15 7" stroke="#68687C" style="stroke:#68687C;stroke:color(display-p3 0.4089 0.4089 0.4875);stroke-opacity:1;" stroke-width="1.5" stroke-linecap="round" stroke-linejoin="round"/>
</g>
</svg>
