<svg width="26" height="27" viewBox="0 0 26 27" fill="none" xmlns="http://www.w3.org/2000/svg">
<path d="M4.90436 8.4556C5.12524 6.40582 6.07334 4.51185 7.56715 3.13623C9.06096 1.76061 10.9955 1 13.0006 1C15.0056 1 16.9401 1.76061 18.434 3.13623C19.9278 4.51185 20.8759 6.40582 21.0967 8.4556L21.4642 11.8544L21.473 11.9399C21.6612 13.6259 22.195 15.2516 23.0391 16.7097L23.0829 16.7847L23.9243 18.2292C24.6899 19.5401 25.0719 20.1956 24.9888 20.7341C24.9339 21.0915 24.7552 21.4164 24.4857 21.649C24.0789 22 23.3352 22 21.8492 22H4.15191C2.66449 22 1.92079 22 1.5154 21.6505C1.24504 21.4178 1.0658 21.0922 1.01084 20.7341C0.92918 20.1956 1.31124 19.5401 2.07536 18.2292L2.91969 16.7832L2.96344 16.7082C3.80682 15.2504 4.34011 13.6253 4.52813 11.9399L4.53688 11.8544L4.90436 8.4556Z" stroke="#2D2D2D" style="stroke:#2D2D2D;stroke:color(display-p3 0.1772 0.1772 0.1772);stroke-opacity:1;" stroke-width="1.5"/>
<path d="M9 22C9 23.0609 9.42143 24.0783 10.1716 24.8284C10.9217 25.5786 11.9391 26 13 26C14.0609 26 15.0783 25.5786 15.8284 24.8284C16.5786 24.0783 17 23.0609 17 22" stroke="#2D2D2D" style="stroke:#2D2D2D;stroke:color(display-p3 0.1772 0.1772 0.1772);stroke-opacity:1;" stroke-width="1.5" stroke-linecap="round"/>
</svg>
